<?xml version="1.0" encoding="UTF-8" standalone="no"?>
<!-- Created with Inkscape (http://www.inkscape.org/) -->

<svg
   width="140.82481mm"
   height="294.74799mm"
   viewBox="0 0 140.82481 294.74799"
   version="1.1"
   id="svg1"
   xml:space="preserve"
   inkscape:export-filename="bitmap.png"
   inkscape:export-xdpi="96"
   inkscape:export-ydpi="96"
   sodipodi:docname="FinalLogo.svg"
   inkscape:version="1.3.2 (091e20e, 2023-11-25)"
   xmlns:inkscape="http://www.inkscape.org/namespaces/inkscape"
   xmlns:sodipodi="http://sodipodi.sourceforge.net/DTD/sodipodi-0.dtd"
   xmlns="http://www.w3.org/2000/svg"
   xmlns:svg="http://www.w3.org/2000/svg"><sodipodi:namedview
     id="namedview1"
     pagecolor="#ffffff"
     bordercolor="#000000"
     borderopacity="0.25"
     inkscape:showpageshadow="2"
     inkscape:pageopacity="0.0"
     inkscape:pagecheckerboard="0"
     inkscape:deskcolor="#d1d1d1"
     inkscape:document-units="mm"
     inkscape:zoom="0.44487098"
     inkscape:cx="423.71835"
     inkscape:cy="684.46811"
     inkscape:window-width="1440"
     inkscape:window-height="900"
     inkscape:window-x="0"
     inkscape:window-y="0"
     inkscape:window-maximized="0"
     inkscape:current-layer="layer1" /><defs
     id="defs1" /><g
     inkscape:label="Layer 1"
     inkscape:groupmode="layer"
     id="layer1"
     transform="translate(-3.1478135,-1.3683056)"><path
       style="fill:#000000;stroke-width:1.60281"
       d="m 143.52479,296.07688 c -0.0505,0.0483 -31.65606,0.0528 -70.234451,0.0102 L 3.1478135,296.00975 3.3258809,148.68902 3.5039495,1.3683056 73.738299,1.4458215 143.97263,1.5233375 143.79466,148.75633 c -0.0979,80.97814 -0.21926,147.27242 -0.26983,147.32062 z M 73.703508,1.7416626 3.7790625,1.6314428 3.6013908,148.62334 3.4237202,295.6152 l 69.9589698,0.0772 69.95897,0.0772 0.1432,-146.95885 0.14318,-146.9588931 z M 73.385671,293.19211 6.181042,293.11793 6.3556099,148.6923 6.530179,4.2666686 73.734792,4.3408403 140.93943,4.4150134 140.76485,148.84063 140.59028,293.26628 Z M 73.734481,4.6040319 6.8052901,4.5301639 6.6311198,148.6268 6.4569486,292.72345 l 66.9291944,0.0739 66.929177,0.0739 0.17418,-144.09664 0.17417,-144.096649 z M 122.28552,110.20471 c -0.72208,6.89553 -4.34216,10.98316 -10.89088,12.29748 -1.17355,0.23552 -2.01923,0.24794 -15.837468,0.23269 l -14.597733,-0.0161 0.0075,-6.57977 0.0075,-6.57974 4.714371,-0.0294 4.714361,-0.0294 0.04033,-3.25523 0.04032,-3.2552 5.09543,0.006 5.095449,0.006 0.065,3.22414 0.0651,3.22417 2.68472,0.0389 c 2.0036,0.0289 2.94697,-0.0124 3.71847,-0.16295 2.70723,-0.5284 3.98216,-1.92574 3.83218,-4.20013 -0.10768,-1.63198 -0.99288,-2.73048 -2.51437,-3.12001 -1.06199,-0.27189 -1.19616,-0.35469 -1.09471,-0.67549 0.19001,-0.60071 3.83679,-9.114023 3.97691,-9.28393 0.1926,-0.23357 1.3123,-0.107223 2.77576,0.313443 4.19572,1.20582 7.17711,5.377733 7.90407,11.060367 0.0833,0.65148 0.20983,1.61632 0.28104,2.1441 0.16154,1.19733 0.13748,2.51727 -0.085,4.64094 z m -0.47773,-6.12739 c -0.65008,-4.689813 -2.28467,-8.033979 -4.8278,-9.876909 -1.45085,-1.051435 -3.67238,-1.897451 -5.01392,-1.90945 -0.25406,-0.0015 -0.53412,0.565715 -2.18769,4.43665 -1.04298,2.441581 -1.92802,4.513229 -1.96678,4.603669 -0.0429,0.10016 0.0408,0.16453 0.21453,0.16472 0.56102,7.3e-4 1.83513,0.56169 2.31144,1.01787 0.79842,0.7647 1.06103,1.48825 1.06488,2.93372 0.004,1.10091 -0.0402,1.32867 -0.35992,1.90773 -1.06097,1.9208 -2.99282,2.56133 -7.71215,2.5571 -1.33825,-10e-4 -2.53116,-0.0382 -2.6509,-0.0825 -0.19032,-0.0701 -0.21725,-0.4844 -0.21386,-3.2901 l 0.004,-3.21001 -4.888854,-0.005 -4.888851,-0.005 -0.0043,3.21 c -0.0032,2.80572 -0.03121,3.22003 -0.221808,3.28963 -0.119827,0.0438 -2.22694,0.0775 -4.682391,0.0747 l -4.464475,-0.005 -0.0075,6.25076 -0.0075,6.25077 14.04835,0.0155 c 15.527959,0.0172 15.475009,0.0197 18.040099,-0.8147 2.39816,-0.77992 4.46741,-2.22953 5.88425,-4.12221 1.04304,-1.39333 1.98064,-3.54656 2.39311,-5.49587 0.3972,-1.87719 0.46151,-5.56053 0.13797,-7.89555 z m 0.28262,121.46277 c -0.2327,1.72388 -1.08552,4.45986 -1.84518,5.91975 -0.56739,1.09034 -1.794,2.72463 -2.7113,3.61236 -2.04385,1.97797 -4.88276,3.33737 -8.43643,4.03975 -1.65867,0.32783 -7.43077,0.32196 -8.95466,-0.009 -3.670583,-0.79744 -6.140319,-2.02945 -8.347107,-4.16393 -2.14495,-2.07464 -3.27855,-4.3376 -4.265886,-8.51578 -0.41644,-1.76234 -0.40963,-7.18114 0.01126,-8.94848 0.275024,-1.15478 0.81987,-3.00346 1.096117,-3.71915 1.153355,-2.98806 3.550495,-5.67833 6.424155,-7.20982 3.303742,-1.76067 8.216971,-2.53813 12.149731,-1.92257 1.27729,0.19993 1.43708,0.25573 1.55031,0.54133 0.0741,0.18658 0.10628,4.48168 0.078,10.37263 -0.0265,5.52979 10e-4,10.05423 0.0606,10.05429 0.20689,7.6e-4 1.16499,-0.51384 1.58365,-0.84968 0.58539,-0.46962 1.07288,-1.3166 1.26364,-2.19563 0.30332,-1.3975 -0.31936,-2.77143 -1.57571,-3.47685 -0.42686,-0.23967 -0.61434,-0.43173 -0.61366,-0.62869 0.001,-0.27729 2.00018,-11.82046 2.15406,-12.43701 0.0687,-0.27607 0.1348,-0.30327 0.56981,-0.23532 0.6753,0.10543 2.79842,1.28372 3.9836,2.21073 2.77871,2.17342 4.68043,5.35348 5.57587,9.32387 0.23374,1.03658 0.29114,1.81685 0.32026,4.35534 0.0196,1.70089 -0.0123,3.44778 -0.0711,3.88198 z m -0.28681,-5.82859 c -0.71667,-6.32244 -3.62142,-10.76355 -8.62239,-13.18278 -0.46581,-0.22533 -0.90365,-0.40977 -0.97297,-0.40984 -0.0694,-8e-5 -0.19793,0.3995 -0.2858,0.88794 -0.0878,0.48845 -0.21929,1.21373 -0.29207,1.61173 -0.0728,0.398 -0.22494,1.25648 -0.33816,1.90776 -0.11328,0.65126 -0.3362,1.92421 -0.49549,2.82875 -0.15932,0.90455 -0.34373,1.97025 -0.40986,2.36826 -0.0661,0.398 -0.18674,1.04253 -0.26802,1.43231 -0.24397,1.17008 -0.20471,1.40813 0.26283,1.59378 0.56945,0.22614 1.29122,1.02777 1.58144,1.75646 0.18453,0.46334 0.22738,0.85673 0.17774,1.63245 -0.0778,1.21517 -0.49629,2.11014 -1.31778,2.8177 -0.62402,0.53747 -2.01982,1.22533 -2.23177,1.09983 -0.0994,-0.0588 -0.14091,-3.34107 -0.1323,-10.4647 l 0.0125,-10.3789 -0.79164,-0.17302 c -1.21623,-0.26581 -5.5871,-0.22578 -7.05793,0.0647 -3.753018,0.74104 -6.099892,1.85489 -8.315324,3.94656 -1.173925,1.10832 -1.880296,2.04712 -2.676647,3.55749 -2.792753,5.29651 -2.803617,13.36146 -0.02531,18.68649 2.038035,3.90612 5.625337,6.43818 10.425761,7.35898 2.8001,0.53709 4.51448,0.60456 7.34679,0.28908 5.79642,-0.64563 9.67496,-2.92744 12.22854,-7.1943 1.77796,-2.97088 2.67099,-7.86178 2.19778,-12.03669 z m -20.18484,6.61755 c -0.53563,0.19574 -2.147011,-0.51231 -3.091341,-1.35833 -0.868207,-0.77783 -1.260291,-1.66284 -1.272421,-2.8723 -0.01233,-1.15318 0.265758,-1.71171 1.323642,-2.66555 0.828772,-0.74725 2.68256,-1.70522 3.04311,-1.57258 0.20043,0.0738 0.22355,0.5204 0.21905,4.23596 -0.004,3.65861 -0.0307,4.16297 -0.22204,4.2328 z m -0.27044,-8.1154 c -0.28592,6.1e-4 -1.873975,0.95234 -2.507043,1.50396 -1.202635,1.04788 -1.536538,2.16976 -1.051792,3.53432 0.404707,1.13924 1.857377,2.32642 3.260485,2.66457 l 0.37295,0.0899 0.004,-3.89632 c 0.002,-2.14297 -0.033,-3.89636 -0.0793,-3.89641 z m 20.82814,-28.46739 c -0.0856,0.58463 -0.45112,1.87652 -0.7583,2.67885 -1.13388,2.96151 -3.15245,5.06623 -6.31564,6.58514 -5.41409,2.59975 -15.105872,2.62807 -20.528041,0.0599 -3.713146,-1.75863 -5.786765,-4.1867 -6.933932,-8.11911 -0.497755,-1.70626 -0.498023,-5.12871 -3e-4,-6.54026 0.616691,-1.74968 1.879041,-3.45724 3.292974,-4.4543 l 0.907298,-0.63981 -1.888393,-0.0389 c -1.29935,-0.0267 -1.921651,-0.0891 -1.994975,-0.19959 -0.05856,-0.0884 -0.10403,-3.03575 -0.101027,-6.54967 0.0043,-4.79602 0.04687,-6.42827 0.17108,-6.54668 0.240255,-0.22907 33.307516,-0.19256 33.547226,0.037 0.12373,0.11854 0.16314,1.74362 0.15739,6.50337 -0.004,3.4899 -0.0454,6.43891 -0.0916,6.55334 -0.071,0.1765 -0.38689,0.20773 -2.08109,0.20587 l -1.99729,-0.002 0.8063,0.56871 c 1.08003,0.76177 2.3252,2.0959 2.80965,3.01038 0.9404,1.77521 0.98937,1.98179 1.02417,4.32175 0.0177,1.19426 0.006,2.34899 -0.0253,2.56608 z m -0.53708,-4.75266 c -0.19316,-0.63966 -0.54841,-1.51928 -0.78949,-1.95471 -0.51718,-0.93408 -2.34569,-2.7583 -3.29968,-3.29188 -0.42833,-0.23958 -0.64531,-0.44464 -0.61728,-0.58337 0.0372,-0.18486 0.33782,-0.21852 2.21055,-0.24777 l 2.1673,-0.0339 0.008,-6.31323 0.008,-6.3132 -16.52574,-0.0182 -16.525727,-0.0182 -0.0075,6.31313 -0.0075,6.31314 2.098361,0.0386 c 2.538696,0.0466 2.658566,0.14402 1.309088,1.06193 -3.27619,2.22848 -4.641765,5.63563 -3.898093,9.72582 0.65426,3.59856 2.336363,6.20381 5.206667,8.06405 2.081759,1.34919 3.470114,1.83911 7.376864,2.60315 1.36775,0.26746 7.55306,0.23163 9.13106,-0.0529 4.80714,-0.86685 7.88296,-2.47439 10.0803,-5.26838 2.02794,-2.57861 2.96202,-7.08917 2.07581,-10.02407 z m -10.51681,0.0934 c -0.53084,1.29287 -0.96609,1.74313 -2.29205,2.37094 -1.20773,0.57184 -1.92193,0.69068 -4.12554,0.6864 -1.74071,-0.003 -2.21748,-0.0498 -3.0303,-0.29459 -1.722421,-0.51887 -2.599905,-1.22223 -3.257575,-2.61119 -0.478032,-1.00952 -0.44588,-2.63505 0.07185,-3.63976 0.805928,-1.5637 2.409165,-2.38478 5.089455,-2.60656 3.16032,-0.2615 5.82638,0.43173 6.91418,1.79784 0.88474,1.11104 1.16184,3.00139 0.62992,4.29692 z m -0.46797,-3.24917 c -0.38157,-0.78366 -1.2433,-1.5651 -2.12581,-1.92775 -2.65919,-1.09266 -6.97913,-0.74233 -8.793589,0.71318 -0.222794,0.17872 -0.58753,0.64053 -0.810561,1.02625 -0.359213,0.62129 -0.405619,0.82895 -0.406573,1.81987 -5.36e-4,0.96545 0.05266,1.2225 0.391558,1.87787 0.859477,1.66201 2.752295,2.46705 5.795745,2.46504 4.14824,-0.003 6.24512,-1.45208 6.26346,-4.32916 0.003,-0.76546 -0.0658,-1.13473 -0.31423,-1.6453 z m 11.56858,-34.26781 c -0.25922,1.97936 -1.27017,5.1547 -2.0941,6.57748 -1.66985,2.88355 -4.38842,5.16796 -7.51771,6.31715 -4.79067,1.75933 -11.28284,1.72809 -15.829256,-0.076 -1.952634,-0.7749 -3.196419,-1.55857 -4.691195,-2.95574 -2.120518,-1.98208 -3.293081,-4.13337 -4.248812,-7.79513 -0.428741,-1.64265 -0.42946,-1.65151 -0.428151,-5.26429 0.0011,-3.26441 0.03335,-3.76654 0.321172,-5.12662 0.55762,-2.62868 1.300787,-4.4277 2.604342,-6.30436 1.515452,-2.18174 3.723881,-3.93787 6.20595,-4.93493 1.750249,-0.7031 4.17112,-1.20956 4.17073,-0.87258 -8e-5,0.0646 0.18738,1.17511 0.41656,2.46787 1.2524,7.06392 1.64679,9.44115 1.60816,9.69355 -0.0308,0.20102 -0.20193,0.32388 -0.60549,0.43468 -1.45178,0.39849 -2.503007,1.19659 -3.101337,2.35456 -1.091517,2.11248 -0.434844,4.62609 1.467727,5.61831 1.40933,0.735 1.87995,0.82709 4.25108,0.83189 1.96278,0.003 2.3066,-0.0294 3.14795,-0.30596 2.91917,-0.95936 4.0179,-3.68732 2.55439,-6.34218 -0.54268,-0.98442 -1.83116,-1.92233 -2.96232,-2.15631 -0.84024,-0.1738 -0.85809,0.28594 0.22249,-5.73154 0.38332,-2.1347 0.79499,-4.44375 0.91482,-5.1312 0.33337,-1.91288 0.30492,-1.84199 0.73881,-1.84151 0.61369,1.6e-4 2.47646,0.50939 3.65683,0.99867 2.98334,1.23662 5.28868,3.23018 7.00024,6.05343 0.63279,1.04382 1.41982,3.09143 1.84657,4.80426 0.31512,1.2648 0.34744,1.6759 0.37774,4.80464 0.0182,1.88184 0.005,3.62877 -0.027,3.88204 z m -0.51337,-7.53593 c -0.7304,-3.78025 -2.10673,-6.50869 -4.40409,-8.73075 -1.99375,-1.92839 -4.3777,-3.19132 -7.16902,-3.79789 l -0.83851,-0.1822 -0.3171,1.79249 c -0.1744,0.9859 -0.40273,2.26616 -0.50737,2.84507 -0.10467,0.57891 -0.24897,1.4078 -0.32073,1.84199 -0.20966,1.26855 -0.82847,4.70397 -0.91835,5.09831 -0.0575,0.25253 -0.0271,0.36188 0.1006,0.3621 0.34068,-1.5e-4 1.96196,0.80565 2.54685,1.26472 0.36911,0.28969 0.74681,0.77829 1.03466,1.33845 0.57768,1.12411 0.69548,2.64415 0.30099,3.88397 -0.65731,2.06594 -2.99761,3.25177 -6.4101,3.24801 -3.77208,-0.004 -6.064033,-1.31591 -6.595817,-3.77492 -0.177461,-0.82071 0.02402,-2.60045 0.366677,-3.23861 0.623845,-1.1619 1.99252,-2.24968 3.25307,-2.58544 l 0.60197,-0.16032 -0.38811,-2.19533 c -0.21348,-1.20745 -0.68198,-3.88337 -1.04114,-5.94655 l -0.65305,-3.75116 -0.33417,0.0463 c -1.475731,0.20469 -4.248922,1.2701 -5.734024,2.20288 -1.644031,1.0326 -3.542334,3.18174 -4.636349,5.24898 -1.625745,3.07195 -2.396239,8.26587 -1.834416,12.36554 1.082819,7.90125 5.047052,12.23907 12.656249,13.84906 1.57279,0.33275 6.94296,0.33709 8.53832,0.007 4.5976,-0.95161 7.43172,-2.58738 9.8229,-5.66952 1.49,-1.92049 2.48919,-4.58412 3.00874,-8.02055 0.2414,-1.59676 0.16752,-5.80809 -0.12868,-7.34156 z m 0.56165,-64.90721 c -0.14955,1.0905 -0.75246,3.391325 -1.15697,4.414681 -1.83029,4.630305 -5.42377,7.647892 -10.64276,8.937151 -1.31036,0.323695 -4.21813,0.642087 -5.85365,0.640971 -1.1926,-0.0011 -3.83734,-0.285103 -4.957061,-0.532866 -7.378986,-1.632712 -11.708995,-6.998062 -12.221195,-15.143329 -0.127699,-2.031114 0.01587,-5.265402 0.284247,-6.382058 1.201348,-5.00738 2.817473,-7.648523 6.119016,-9.999938 5.150931,-3.668565 14.704313,-4.08064 20.670893,-0.891588 3.19024,1.70513 5.49199,4.393926 6.70807,7.83602 0.94112,2.663937 1.07653,3.523743 1.11919,7.107367 0.0211,1.773278 -0.0112,3.579376 -0.0697,4.01359 z m -0.33851,-6.45691 c -0.46567,-3.387843 -1.43706,-6.058011 -2.94222,-8.087537 -2.3394,-3.154466 -5.50537,-5.017411 -9.99304,-5.880252 -1.71756,-0.330208 -6.06192,-0.338835 -7.91857,-0.01525 -3.68942,0.642113 -6.147584,1.771679 -8.455355,3.885313 -2.113162,1.935414 -3.461416,4.312058 -4.234742,7.464877 -1.014009,4.133843 -0.901164,8.305729 0.333399,12.32557 1.001504,3.261131 3.06649,5.990458 5.883277,7.775989 2.696434,1.709267 6.129331,2.585011 10.150561,2.589449 8.26352,0.0091 13.9919,-3.516434 16.20956,-9.976256 1.05975,-3.086925 1.41686,-6.809493 0.96713,-10.081444 z m -10.75129,4.722122 c -0.86148,1.99583 -2.73329,2.866854 -6.20377,2.886831 -2.58455,0.01482 -4.04522,-0.363474 -5.33521,-1.381935 -1.136303,-0.897129 -1.709323,-2.870109 -1.287929,-4.434399 0.668835,-2.482728 2.726529,-3.604594 6.634529,-3.617146 1.32421,-0.0051 2.00535,0.05488 2.6163,0.226904 1.21678,0.342755 2.37121,0.977214 2.8834,1.584688 1.05431,1.250438 1.34349,3.227283 0.69268,4.735057 z m -0.35909,-3.420232 c -0.32736,-0.839017 -1.05827,-1.61539 -1.91517,-2.034305 -1.53585,-0.750898 -3.88752,-0.978501 -6.06216,-0.586803 -1.95211,0.351618 -3.14158,1.099909 -3.810104,2.396969 -0.3312,0.64261 -0.384823,0.903907 -0.382882,1.865815 0.0011,1.014764 0.04494,1.194684 0.462899,1.938789 0.253339,0.451134 0.670186,0.973336 0.926337,1.16046 2.53159,1.84957 8.32301,1.605078 10.11248,-0.426877 0.97764,-1.110143 1.24518,-2.836294 0.6686,-4.314048 z m 10.69091,208.10701 c -0.0559,0.13051 -4.39756,0.15964 -21.06031,0.14125 l -20.989976,-0.0232 0.01426,-11.69474 c 0.01555,-12.92417 -0.0011,-12.64992 0.908767,-15.34708 1.234638,-3.66173 3.893621,-6.17806 7.691664,-7.27902 1.806789,-0.52375 2.479967,-0.60398 4.992506,-0.59494 2.126149,0.008 2.655166,0.0523 3.717929,0.3142 2.340224,0.57657 4.16407,1.56898 5.69017,3.0962 l 0.87282,0.87345 0.7795,-0.68063 c 1.06194,-0.92723 1.72193,-1.37366 2.77783,-1.87895 2.5929,-1.24082 5.36167,-1.64504 11.22339,-1.63856 2.61751,0.003 3.11377,0.0351 3.2974,0.21042 0.18996,0.18196 0.21506,0.90325 0.20708,5.95492 -0.005,3.16133 -0.0546,5.8162 -0.11057,5.89971 -0.0724,0.10853 -1.55662,0.16751 -5.19685,0.20674 -5.60154,0.0604 -5.78486,0.0835 -7.23916,0.91451 -0.92571,0.52892 -1.6775,1.46613 -2.13266,2.65858 -0.33596,0.88021 -0.34987,1.02804 -0.31546,3.35533 l 0.0358,2.43455 7.4365,0.0745 7.43649,0.0745 0.0165,6.3824 c 0.01,3.51031 -0.0146,6.45637 -0.0532,6.5468 z m -7.7782,-12.7722 -7.47096,-0.0422 -0.0344,-2.5567 c -0.0392,-2.91413 0.096,-3.54697 1.06092,-4.97012 0.62412,-0.92041 1.13463,-1.34862 2.15725,-1.80952 1.33931,-0.60363 2.5777,-0.72397 7.39796,-0.71886 l 4.37244,0.005 0.006,-5.74195 0.006,-5.74194 -4.37251,0.0668 c -4.41572,0.0674 -5.60349,0.17724 -7.46647,0.68981 -1.99927,0.55011 -3.70147,1.4812 -5.03896,2.7563 -0.41176,0.39257 -0.84879,0.71362 -0.97124,0.71349 -0.12253,-1.2e-4 -0.65479,-0.44352 -1.18307,-0.98528 -2.202829,-2.2592 -5.249178,-3.37842 -9.198042,-3.37933 -1.921822,-4.6e-4 -3.410956,0.21505 -5.303951,0.7676 -0.70414,0.20553 -2.168629,0.9488 -2.962685,1.50363 -1.517802,1.06054 -2.939017,2.82328 -3.66347,4.5438 -0.531076,1.2613 -0.993717,3.17243 -1.154363,4.76838 -0.09641,0.95794 -0.157771,5.42309 -0.165793,12.07285 l -0.01276,10.55269 20.725984,0.0566 20.72598,0.0566 0.008,-6.28254 0.007,-6.28253 z m -17.270906,-0.15184 c -0.05287,0.12497 -0.841803,0.16356 -3.286057,0.16087 l -3.216367,-0.003 -0.09513,-0.61097 c -0.05244,-0.33604 -0.05984,-2.06817 -0.01673,-3.84918 0.09191,-3.79899 0.212724,-4.362 1.120784,-5.22771 0.626161,-0.59695 1.291307,-0.83532 2.330894,-0.83533 1.586257,3e-5 2.687533,0.96121 3.071692,2.68109 0.176678,0.791 0.25366,7.30058 0.09094,7.68478 z m -0.588829,-8.15446 c -0.242978,-0.66413 -0.849245,-1.33997 -1.445077,-1.61096 -1.111078,-0.50533 -2.710548,-0.15703 -3.416405,0.74391 -0.653444,0.83404 -0.707937,1.22705 -0.716388,5.16555 l -0.0075,3.68465 2.75038,0.0387 c 1.512686,0.0212 2.835298,0.008 2.939156,-0.0302 0.259988,-0.0949 0.16708,-7.25155 -0.103708,-7.99178 z M 121.70896,49.864979 c -0.0954,0.03457 -7.70304,0.0393 -16.90577,0.01062 l -16.73225,-0.05227 0.0075,-6.579748 0.0075,-6.579775 2.32832,-0.03354 2.328299,-0.03354 -0.649037,-0.39433 c -2.95298,-1.79408 -4.647406,-4.996882 -4.62956,-8.750826 0.0178,-3.495242 1.176198,-6.216284 3.564394,-8.364119 0.809511,-0.728028 2.436425,-1.827882 2.703384,-1.827587 0.164002,1.83e-4 8.55382,8.739129 8.59206,8.949602 0.0239,0.13164 -0.3703,0.620469 -0.96735,1.199783 -1.882505,1.826551 -2.756064,4.248801 -2.061082,5.715123 0.608766,1.284473 2.780862,2.374375 6.242622,3.132415 1.18876,0.2603 1.79756,0.285398 8.78263,0.362047 l 7.50535,0.08247 0.028,6.550551 c 0.0219,5.170371 -0.009,6.563802 -0.14572,6.613443 z m -6.96111,-12.84281 c -6.11717,-0.0068 -6.88384,-0.03197 -8.36583,-0.274214 -4.1422,-0.677263 -6.500845,-1.749294 -7.38413,-3.356139 -0.569031,-1.035175 -0.217615,-3.278136 0.743017,-4.742531 0.23722,-0.361626 0.831903,-1.046242 1.321483,-1.521383 l 0.89017,-0.863866 -4.157874,-4.293379 -4.157931,-4.293361 -0.825619,0.534435 c -2.774532,1.795931 -4.509347,4.608219 -4.923953,7.982184 -0.249703,2.031973 0.153406,4.398162 1.033292,6.065072 0.770987,1.460614 2.44568,3.080924 4.158961,4.023939 0.246003,0.13532 0.447166,0.35183 0.447015,0.480971 -9.75e-4,0.216915 -0.194706,0.234632 -2.548004,0.232031 l -2.547726,-0.0029 -0.0075,6.250759 -0.0075,6.250756 16.525749,0.01822 16.52573,0.01822 0.008,-6.250755 0.008,-6.250759 z m -44.202153,241.529191 -4.096945,-0.0394 0.0915,-104.32206 0.09151,-104.322066 -0.612574,-5e-5 c -0.336912,-3.39e-4 -1.343812,-0.09199 -2.237525,-0.203801 -3.882289,-0.48537 -7.647178,-1.762433 -10.928399,-3.706932 -1.297411,-0.768866 -1.364243,-0.795449 -1.364555,-0.54292 -2.63e-4,0.312054 -0.931413,1.996686 -1.506133,2.725241 -1.127294,1.428951 -3.072256,2.685001 -4.904712,3.16735 -0.833199,0.219324 -1.471648,0.289181 -2.616928,0.286329 -2.00789,-0.0043 -3.533022,-0.361535 -5.507022,-1.287345 -3.073425,-1.441442 -5.421887,-3.598434 -7.385192,-6.783072 -2.090764,-3.391406 -2.825919,-7.714331 -1.893343,-11.133521 0.941809,-3.45304 3.714082,-6.122383 7.102523,-6.838828 0.801621,-0.169491 1.46311,-0.208042 2.733515,-0.159318 0.92177,0.0354 1.783278,0.108386 1.914415,0.162428 0.2206,0.09077 0.232306,-0.0084 0.156555,-1.329767 -0.04488,-0.785349 -0.0083,-2.168073 0.07869,-3.072698 0.636115,-6.511057 3.37719,-12.152473 8.08589,-16.641582 3.107949,-2.962975 6.909153,-5.196517 11.028892,-6.480356 3.467219,-1.080528 6.631635,-1.45145 12.361606,-1.449028 l 3.821594,0.0016 L 74.80072,147.58646 74.642369,278.59135 Z M 71.206231,16.971728 c -4.243654,-0.004 -6.789444,0.162898 -9.055448,0.593734 -10.492176,1.994962 -18.841683,9.598816 -21.420153,19.507211 -0.562178,2.160259 -0.801258,4.253773 -0.761789,6.670263 0.01931,1.172659 0.0043,2.161938 -0.03463,2.198344 -0.03833,0.03649 -0.593716,-0.02463 -1.234444,-0.135793 -4.777652,-0.82865 -9.209122,1.89503 -10.609525,6.520855 -0.385944,1.274814 -0.519184,3.812506 -0.282295,5.376859 0.195704,1.292429 0.924356,3.504125 1.541886,4.680115 0.76893,1.464343 2.350274,3.540374 3.592699,4.716606 1.957767,1.853424 4.309198,3.199653 6.66895,3.818122 1.554666,0.407453 4.142942,0.414784 5.467032,0.01509 2.623898,-0.791245 4.923407,-2.848354 5.879343,-5.259602 0.224079,-0.565236 0.398752,-0.820702 0.561877,-0.82186 0.130176,-0.0014 0.656623,0.257916 1.169876,0.575201 2.296678,1.419774 5.486644,2.716722 8.311368,3.379139 1.471586,0.345106 2.389495,0.474386 5.321677,0.749418 l 0.722927,0.06777 -0.126122,104.3458 -0.126117,104.34546 3.78713,0.004 3.787157,0.004 L 74.525584,147.6487 74.683526,16.974766 Z M 62.745585,214.42226 c -0.621968,6.35084 -4.651915,10.19685 -12.070411,11.51939 -1.409177,0.25123 -2.130188,0.29503 -4.889209,0.297 -3.484757,0.002 -4.729499,-0.13307 -7.291454,-0.79449 -6.026813,-1.55589 -9.46054,-5.60095 -9.853369,-11.60769 -0.232147,-3.54982 1.225877,-6.50067 4.140684,-8.38017 l 0.536071,-0.34566 -2.017363,-0.002 -2.017393,-0.002 0.04364,-6.48102 0.04364,-6.48102 16.11262,-0.0183 c 8.861939,-0.0102 16.252033,0.014 16.422399,0.0535 l 0.309782,0.0718 -0.0078,6.44213 -0.0078,6.44214 -1.991045,0.0343 -1.991015,0.0342 0.922897,0.66702 c 2.715476,1.96261 3.96113,4.91718 3.605239,8.55131 z m -0.478247,-3.12896 c -0.290371,-1.56677 -1.013913,-2.84406 -2.339531,-4.13008 -0.60691,-0.58878 -1.428595,-1.26096 -1.825973,-1.49375 -1.208301,-0.70786 -1.044004,-0.79582 1.481397,-0.79303 l 2.203426,0.002 0.0074,-6.18498 0.0074,-6.18497 -16.043723,-0.0177 -16.043728,-0.0177 -0.0075,6.18496 -0.0075,6.18498 2.134576,0.002 c 2.417996,0.003 2.617538,0.10217 1.479786,0.73761 -0.359909,0.20101 -1.121043,0.81277 -1.691476,1.3595 -2.26987,2.17559 -3.032867,4.86859 -2.416258,8.52836 0.909177,5.39623 4.962091,8.92941 11.623166,10.13267 1.842602,0.33285 7.763503,0.34847 9.57112,0.0253 4.64793,-0.83112 7.892568,-2.60351 9.8845,-5.39946 1.742917,-2.44643 2.528944,-5.98913 1.982717,-8.93641 z m -10.326033,-0.54616 c -0.67369,2.0505 -2.821499,3.10786 -6.278063,3.09067 -3.258686,-0.0164 -5.198518,-0.88756 -6.083778,-2.73267 -0.255296,-0.5321 -0.315602,-0.88543 -0.31444,-1.84269 0.0013,-1.58571 0.417821,-2.44833 1.554489,-3.22423 1.126159,-0.76871 2.240926,-1.06454 4.303668,-1.14205 3.72182,-0.13989 5.944417,0.78043 6.726667,2.78533 0.336819,0.86326 0.376625,2.19765 0.09144,3.06564 z m -0.421099,-2.90558 c -0.483161,-1.10856 -1.686705,-1.97269 -3.331233,-2.39176 -0.930113,-0.23701 -3.592004,-0.27788 -4.700572,-0.072 -2.435416,0.45195 -3.876679,1.89338 -3.879089,3.87954 -0.0024,1.95516 1.074548,3.2419 3.254158,3.88823 1.784206,0.52907 4.50098,0.46329 6.224461,-0.15073 0.969345,-0.34534 2.091352,-1.37836 2.399273,-2.20898 0.285804,-0.77095 0.303205,-2.32417 0.03325,-2.94414 z m 11.30742,-76.46171 c -0.700271,8.2519 -5.155045,13.24789 -13.019797,14.60165 -1.739916,0.29948 -4.734192,0.38895 -6.51227,0.19459 -6.180876,-0.67567 -10.377945,-3.27315 -12.614221,-7.80671 -1.662408,-3.37015 -2.291979,-7.31119 -1.850185,-11.58184 0.75043,-7.25439 4.219057,-11.8094 10.481338,-13.76417 4.054554,-1.26567 9.742726,-1.16215 13.779611,0.25073 4.505983,1.57703 7.523494,4.83707 8.999347,9.7227 0.666919,2.20781 0.96866,5.64359 0.736177,8.38305 z m -0.656397,-6.37889 c -0.457308,-2.50378 -1.155817,-4.28865 -2.384835,-6.09394 -2.996277,-4.40115 -8.128079,-6.62646 -14.736121,-6.39008 -3.199683,0.11446 -5.643248,0.65059 -7.845671,1.72139 -4.120179,2.00323 -6.794042,5.71718 -7.769941,10.79229 -0.359474,1.86939 -0.36469,6.55598 -0.0094,8.42208 1.263207,6.6346 5.243924,10.67268 11.913646,12.08533 1.841085,0.38995 6.571649,0.42305 8.607075,0.0602 4.267803,-0.76077 7.566456,-2.75584 9.719834,-5.87874 1.554258,-2.25407 2.341585,-4.60226 2.817028,-8.40167 0.138573,-1.10801 -0.04681,-4.86701 -0.311627,-6.31691 z m -10.029085,5.45012 c -0.156397,0.65489 -0.805489,1.61636 -1.399592,2.07297 -1.173324,0.90172 -2.647199,1.27961 -4.96696,1.2734 -3.194233,-0.009 -5.119858,-0.82852 -6.001615,-2.55571 -0.682193,-1.3363 -0.563675,-3.28149 0.277254,-4.55118 0.779021,-1.1762 2.702414,-1.96299 5.062779,-2.07099 1.823779,-0.0836 3.312905,0.13146 4.509467,0.65046 1.330058,0.57702 1.915531,1.1999 2.38713,2.53953 0.212812,0.6045 0.282706,2.00832 0.131592,2.64152 z m -0.573542,-2.86181 c -0.428305,-1.0535 -2.08179,-2.15687 -3.722988,-2.48432 -1.086093,-0.2167 -4.148298,-0.0883 -5.036265,0.21114 -2.01629,0.67997 -3.101056,2.05612 -3.10333,3.93692 -0.0025,2.03105 1.215437,3.37791 3.587252,3.9671 1.034586,0.25702 3.509159,0.29888 4.70374,0.0795 1.626395,-0.29858 3.01288,-1.23453 3.51126,-2.37034 0.42231,-0.96243 0.448036,-2.38647 0.06024,-3.34006 z m 10.371709,150.6587 c -0.0955,0.0345 -9.314327,0.0375 -20.486372,0.006 l -20.312845,-0.0563 0.01812,-15.00184 0.01813,-15.00183 5.16429,0.006 5.16429,0.006 0.05856,8.55376 0.05856,8.55375 2.410005,0.003 2.409991,0.003 0.07918,-8.55362 0.07918,-8.5536 4.992201,-0.0289 c 2.745699,-0.016 5.006528,-0.0134 5.024048,0.005 0.01751,0.0191 0.05935,3.88378 0.09296,8.58834 l 0.06099,8.55375 7.643076,0.074 7.643076,0.074 0.02816,6.35314 c 0.02216,5.01245 -0.0086,6.36641 -0.145486,6.41603 z m -7.904689,-12.61244 -7.677535,-0.0424 -0.02515,-8.52083 -0.02515,-8.52082 -4.68131,-0.005 -4.681269,-0.005 -0.01008,8.34553 c -0.0056,4.59003 -0.04777,8.43916 -0.09388,8.55359 -0.07252,0.18008 -0.45224,0.20768 -2.822381,0.20505 l -2.73856,-0.003 -0.02511,-8.52082 -0.02511,-8.52083 -4.888873,-0.005 -4.888861,-0.005 -0.05282,14.63991 -0.05282,14.63993 20.17576,0.0222 20.175763,0.0222 0.0073,-6.11806 0.0073,-6.11807 z m -12.4017,-22.35308 -20.519463,-0.0226 0.0078,-6.44817 0.0078,-6.44816 20.519458,0.0226 20.519427,0.0226 -0.0078,6.44816 -0.0078,6.44815 z m -0.05362,-12.6332 -20.175164,-0.0222 -0.0075,6.18496 -0.0075,6.18497 20.175165,0.0222 20.17515,0.0222 0.0074,-6.18498 0.0074,-6.18496 z m 20.542496,-55.67564 c -0.05995,0.0901 -2.802823,1.35025 -6.095165,2.80038 -3.292302,1.45017 -6.389057,2.81642 -6.881641,3.03614 -0.492598,0.21972 -1.205656,0.53311 -1.584563,0.69641 -0.378907,0.16329 -1.091963,0.47494 -1.584541,0.69254 -13.854925,6.1201 -16.24834,7.14822 -16.459727,7.07045 -0.187192,-0.0689 -0.211045,-0.8345 -0.202335,-6.49748 0.0055,-3.53067 0.0553,-6.48688 0.111283,-6.56937 0.05565,-0.0824 1.372456,-0.71117 2.926014,-1.39708 9.355443,-4.13058 13.642423,-6.04389 13.60712,-6.07298 -0.03243,-0.0267 -9.415072,-4.24984 -12.835355,-5.77723 -0.832717,-0.37185 -2.009536,-0.9146 -2.615117,-1.20609 l -1.101081,-0.53001 -0.0279,-6.55055 c -0.0248,-5.83497 -0.003,-6.55915 0.187237,-6.62913 0.118224,-0.0434 0.815739,0.19197 1.549948,0.52264 0.734192,0.33067 1.954288,0.87882 2.711317,1.21812 2.813052,1.26083 5.499192,2.4638 6.451381,2.88923 0.53965,0.24111 1.538607,0.6896 2.219917,0.99661 0.681323,0.30704 2.013001,0.90149 2.959296,1.321 0.946268,0.41951 2.339883,1.04279 3.096888,1.38511 2.564256,1.15948 11.233274,5.04242 12.731694,5.70263 0.416373,0.18346 0.802483,0.39984 0.858032,0.48085 0.136832,0.1996 0.114997,12.21126 -0.02319,12.4178 z M 59.9106,161.88864 c -1.021972,-0.45546 -2.539471,-1.13549 -3.372176,-1.51119 -0.832732,-0.3757 -2.412155,-1.08318 -3.509824,-1.57216 -1.097698,-0.48897 -2.615184,-1.16888 -3.372178,-1.51089 -0.757035,-0.34203 -1.74802,-0.78715 -2.202246,-0.98918 -1.150272,-0.51163 -6.746844,-3.01784 -8.327224,-3.72905 -0.719181,-0.32362 -1.648234,-0.73856 -2.064601,-0.92205 -0.416369,-0.18349 -1.840946,-0.82241 -3.16572,-1.4198 -1.324775,-0.59742 -2.795823,-1.2545 -3.268951,-1.46018 l -0.860273,-0.37397 -0.0076,6.3072 -0.0076,6.3072 0.722621,0.31987 c 0.397425,0.17593 1.40392,0.62874 2.236646,1.00622 0.832695,0.3775 2.443091,1.10382 3.578614,1.61407 1.135536,0.51026 2.591084,1.16448 3.234545,1.45385 0.643461,0.28936 1.603496,0.72027 2.133418,0.95758 4.139024,1.8536 4.748532,2.16267 4.748236,2.40775 -4.28e-4,0.19312 -0.403256,0.42646 -1.757089,1.01731 -0.966226,0.42171 -2.407848,1.05843 -3.203564,1.41495 -0.795731,0.35651 -3.089918,1.37313 -5.098177,2.25914 -2.008254,0.88602 -4.317946,1.90989 -5.132629,2.2753 l -1.481223,0.66435 -0.0075,6.25773 c -0.0042,3.44176 0.01395,6.25778 0.04009,6.25781 0.02627,3e-5 0.227757,-0.0845 0.447803,-0.18766 0.429645,-0.20157 1.465452,-0.65983 5.360454,-2.37161 1.364099,-0.5995 2.976237,-1.30971 3.582495,-1.57825 0.606284,-0.26854 1.489835,-0.65839 1.963492,-0.86632 0.473655,-0.20796 1.248692,-0.54886 1.722329,-0.75759 0.47365,-0.20872 1.667249,-0.73383 2.652425,-1.16691 1.808815,-0.79513 2.592247,-1.1411 5.098153,-2.2514 0.757832,-0.33579 3.594358,-1.58271 6.303381,-2.77093 l 4.925481,-2.16043 -0.02657,-6.04635 -0.02656,-6.04631 z m 2.314384,-53.81955 c -0.05057,0.0483 -7.456782,0.0794 -16.458267,0.0695 l -16.36637,-0.018 0.04364,-6.481 0.04364,-6.481027 2.11773,-0.06346 2.11772,-0.06347 -0.778373,-0.513045 C 27.742778,91.089967 27.361001,82.57436 32.211761,78.169833 c 0.993675,-0.902252 2.322307,-1.763123 2.69719,-1.747586 0.272986,0.01015 8.332707,8.286814 8.410213,8.635382 0.02808,0.125793 -0.322018,0.572822 -0.849586,1.084756 -0.493463,0.478842 -1.091298,1.166513 -1.328514,1.52814 -0.810364,1.2353 -1.207533,3.148337 -0.844016,4.065194 0.347358,0.876048 2.186257,2.027481 4.12107,2.580412 2.678503,0.765475 3.085979,0.796567 10.550634,0.804799 3.810498,0.0042 7.026159,0.04361 7.145899,0.08783 0.194394,0.07154 0.21692,0.76081 0.210083,6.42647 -0.0042,3.49051 -0.04936,6.38578 -0.09949,6.434 z M 54.654419,95.480603 c -6.896889,-0.05295 -7.330535,-0.0696 -8.572297,-0.346406 -4.389401,-0.975823 -6.336376,-2.303712 -6.327635,-4.315616 0.0082,-1.722924 0.802653,-3.441751 2.238512,-4.838654 L 42.920515,85.07756 39.39508,81.43629 c -1.93897,-2.002712 -3.759967,-3.874213 -4.04664,-4.158892 l -0.521207,-0.51761 -0.759343,0.480546 c -3.194589,2.021793 -5.078008,5.691673 -4.871981,9.493213 0.09588,1.769238 0.334781,2.690225 1.07623,4.149024 0.457706,0.900599 0.799864,1.3398 1.751758,2.248794 0.650615,0.621273 1.528727,1.316766 1.951357,1.545514 1.330713,0.720233 1.130279,0.816866 -1.687996,0.81376 l -2.4559,-0.0027 -0.0074,6.119171 -0.0074,6.11916 16.043733,0.0177 16.043722,0.0177 0.0074,-6.1127 0.0074,-6.112716 z"
       id="path1" /></g></svg>
